<?xml version="1.0" encoding="utf-8"?>
<!-- Generator: Adobe Illustrator 22.1.0, SVG Export Plug-In . SVG Version: 6.00 Build 0)  -->
<svg version="1.1" id="Logo" xmlns="http://www.w3.org/2000/svg" xmlns:xlink="http://www.w3.org/1999/xlink" x="0px" y="0px"
	 viewBox="0 0 612 612" style="enable-background:new 0 0 612 612;" xml:space="preserve">
<style type="text/css">
	.st0{fill:#D34627;}
	.st1{fill:#FAFBFB;}
	.st2{fill:#EA5A4F;}
</style>
<rect x="-16.3" y="-9.9" class="st0" width="628.3" height="628.3"/>
<g>
	<path class="st1" d="M175.4,387.2h-30.2V224.8h83.5c32.5,0,53.3,19.7,53.3,48.7s-20.9,48.7-53.3,48.7h-7l64.9,64.9h-40.6
		l-63.8-64.9h-7V387.2z M228.8,296.7c13.9,0,23.2-9.3,23.2-23.2c0-13.9-9.3-23.2-23.2-23.2h-53.3v46.4H228.8z"/>
	<polygon class="st1" points="466.7,224.8 466.7,387.2 304.4,387.2 	"/>
</g>
<g>
	<path class="st2" d="M-487.6,388.3h-30.2V225.9h83.5c32.5,0,53.3,19.7,53.3,48.7s-20.9,48.7-53.3,48.7h-7l64.9,64.9h-40.6
		l-63.8-64.9h-7V388.3z M-434.2,297.8c13.9,0,23.2-9.3,23.2-23.2c0-13.9-9.3-23.2-23.2-23.2h-53.3v46.4H-434.2z"/>
	<polygon class="st2" points="-196.3,225.9 -196.3,388.3 -358.6,388.3 	"/>
</g>
</svg>
